<svg xmlns="http://www.w3.org/2000/svg" viewBox="0 0 512 512" width="512" height="512">
  <path d="M496.31 256 L496.56 262.3 L497.08 268.63 L497.67 275.02 L498.21 281.46 L498.6 287.94 L498.74 294.45 L498.56 300.96 L498 307.44 L497 313.86 L495.55 320.19 L493.64 326.39 L491.29 332.45 L488.54 338.35 L485.44 344.08 L482.07 349.64 L478.49 355.06 L474.8 360.36 L471.1 365.6 L467.48 370.83 L464.11 376.15 L461.18 381.74 L458.46 387.48 L455.78 393.31 L453.03 399.15 L450.13 404.96 L447 410.67 L443.59 416.21 L439.86 421.54 L435.78 426.61 L431.36 431.36 L426.61 435.78 L421.54 439.86 L416.21 443.59 L410.67 447 L404.96 450.13 L399.15 453.03 L393.31 455.78 L387.48 458.46 L381.74 461.18 L376.15 464.11 L370.83 467.48 L365.6 471.1 L360.36 474.8 L355.06 478.49 L349.64 482.07 L344.08 485.44 L338.35 488.54 L332.45 491.29 L326.39 493.64 L320.19 495.55 L313.86 497 L307.44 498 L300.96 498.56 L294.45 498.74 L287.94 498.6 L281.46 498.21 L275.02 497.67 L268.63 497.08 L262.3 496.56 L256 496.31 L249.7 496.56 L243.37 497.08 L236.98 497.67 L230.54 498.21 L224.06 498.6 L217.55 498.74 L211.04 498.56 L204.56 498 L198.14 497 L191.81 495.55 L185.61 493.64 L179.55 491.29 L173.65 488.54 L167.92 485.44 L162.36 482.07 L156.94 478.49 L151.64 474.8 L146.4 471.1 L141.17 467.48 L135.85 464.11 L130.26 461.18 L124.52 458.46 L118.69 455.78 L112.85 453.03 L107.04 450.13 L101.33 447 L95.79 443.59 L90.46 439.86 L85.39 435.78 L80.64 431.36 L76.22 426.61 L72.14 421.54 L68.41 416.21 L65 410.67 L61.87 404.96 L58.97 399.15 L56.22 393.31 L53.54 387.48 L50.82 381.74 L47.89 376.15 L44.52 370.83 L40.9 365.6 L37.2 360.36 L33.51 355.06 L29.93 349.64 L26.56 344.08 L23.46 338.35 L20.71 332.45 L18.36 326.39 L16.45 320.19 L15 313.86 L14 307.44 L13.44 300.96 L13.26 294.45 L13.4 287.94 L13.79 281.46 L14.33 275.02 L14.92 268.63 L15.44 262.3 L15.69 256 L15.44 249.7 L14.92 243.37 L14.33 236.98 L13.79 230.54 L13.4 224.06 L13.26 217.55 L13.44 211.04 L14 204.56 L15 198.14 L16.45 191.81 L18.36 185.61 L20.71 179.55 L23.46 173.65 L26.56 167.92 L29.93 162.36 L33.51 156.94 L37.2 151.64 L40.9 146.4 L44.52 141.17 L47.89 135.85 L50.82 130.26 L53.54 124.52 L56.22 118.69 L58.97 112.85 L61.87 107.04 L65 101.33 L68.41 95.79 L72.14 90.46 L76.22 85.39 L80.64 80.64 L85.39 76.22 L90.46 72.14 L95.79 68.41 L101.33 65 L107.04 61.87 L112.85 58.97 L118.69 56.22 L124.52 53.54 L130.26 50.82 L135.85 47.89 L141.17 44.52 L146.4 40.9 L151.64 37.2 L156.94 33.51 L162.36 29.93 L167.92 26.56 L173.65 23.46 L179.55 20.71 L185.61 18.36 L191.81 16.45 L198.14 15 L204.56 14 L211.04 13.44 L217.55 13.26 L224.06 13.4 L230.54 13.79 L236.98 14.33 L243.37 14.92 L249.7 15.44 L256 15.69 L262.3 15.44 L268.63 14.92 L275.02 14.33 L281.46 13.79 L287.94 13.4 L294.45 13.26 L300.96 13.44 L307.44 14 L313.86 15 L320.19 16.45 L326.39 18.36 L332.45 20.71 L338.35 23.46 L344.08 26.56 L349.64 29.93 L355.06 33.51 L360.36 37.2 L365.6 40.9 L370.83 44.52 L376.15 47.89 L381.74 50.82 L387.48 53.54 L393.31 56.22 L399.15 58.97 L404.96 61.87 L410.67 65 L416.21 68.41 L421.54 72.14 L426.61 76.22 L431.36 80.64 L435.78 85.39 L439.86 90.46 L443.59 95.79 L447 101.33 L450.13 107.04 L453.03 112.85 L455.78 118.69 L458.46 124.52 L461.18 130.26 L464.11 135.85 L467.48 141.17 L471.1 146.4 L474.8 151.64 L478.49 156.94 L482.07 162.36 L485.44 167.92 L488.54 173.65 L491.29 179.55 L493.64 185.61 L495.55 191.81 L497 198.14 L498 204.56 L498.56 211.04 L498.74 217.55 L498.6 224.06 L498.21 230.54 L497.67 236.98 L497.08 243.37 L496.56 249.7 L496.31 256 Z" fill="#000000"/>
</svg>
