<?xml version="1.0" encoding="UTF-8"?>
<!--Generator: Apple Native CoreSVG 228-->
<!DOCTYPE svg
PUBLIC "-//W3C//DTD SVG 1.1//EN"
       "http://www.w3.org/Graphics/SVG/1.1/DTD/svg11.dtd">
<svg version="1.1" xmlns="http://www.w3.org/2000/svg" xmlns:xlink="http://www.w3.org/1999/xlink" width="3300" height="2200">
 <!--glyph: "", point size: 100.0, font version: "19.0d5e1internal", template writer version: "101"-->
 <style>.monochrome-0 {fill:#000000}
.monochrome-1 {fill:#000000}

.multicolor-0:tintColor {fill:#007AFF}
.multicolor-1:tintColor {fill:#007AFF}

.hierarchical-0:secondary {fill:#8E8E8E}
.hierarchical-1:primary {fill:#212121}

.SFSymbolsPreview8E8E8E {fill:#8E8E8E;opacity:1.0}
.SFSymbolsPreview212121 {fill:#212121;opacity:1.0}
</style>
 <g id="Notes">
  <rect height="2200" id="artboard" style="fill:white;opacity:1" width="3300" x="0" y="0"/>
  <line style="fill:none;stroke:black;opacity:1;stroke-width:0.5;" x1="263" x2="3036" y1="292" y2="292"/>
  <text style="stroke:none;fill:black;font-family:sans-serif;font-size:13;font-weight:bold;" transform="matrix(1 0 0 1 263 322)">Weight/Scale Variations</text>
  <text style="stroke:none;fill:black;font-family:sans-serif;font-size:13;text-anchor:middle;" transform="matrix(1 0 0 1 559.711 322)">Ultralight</text>
  <text style="stroke:none;fill:black;font-family:sans-serif;font-size:13;text-anchor:middle;" transform="matrix(1 0 0 1 856.422 322)">Thin</text>
  <text style="stroke:none;fill:black;font-family:sans-serif;font-size:13;text-anchor:middle;" transform="matrix(1 0 0 1 1153.13 322)">Light</text>
  <text style="stroke:none;fill:black;font-family:sans-serif;font-size:13;text-anchor:middle;" transform="matrix(1 0 0 1 1449.84 322)">Regular</text>
  <text style="stroke:none;fill:black;font-family:sans-serif;font-size:13;text-anchor:middle;" transform="matrix(1 0 0 1 1746.56 322)">Medium</text>
  <text style="stroke:none;fill:black;font-family:sans-serif;font-size:13;text-anchor:middle;" transform="matrix(1 0 0 1 2043.27 322)">Semibold</text>
  <text style="stroke:none;fill:black;font-family:sans-serif;font-size:13;text-anchor:middle;" transform="matrix(1 0 0 1 2339.98 322)">Bold</text>
  <text style="stroke:none;fill:black;font-family:sans-serif;font-size:13;text-anchor:middle;" transform="matrix(1 0 0 1 2636.69 322)">Heavy</text>
  <text style="stroke:none;fill:black;font-family:sans-serif;font-size:13;text-anchor:middle;" transform="matrix(1 0 0 1 2933.4 322)">Black</text>
  <line style="fill:none;stroke:black;opacity:1;stroke-width:0.5;" x1="263" x2="3036" y1="1903" y2="1903"/>
  <g transform="matrix(1 0 0 1 263 1933)">
   <path d="M9.24805 0.830078C13.5547 0.830078 17.1387-2.74414 17.1387-7.05078C17.1387-11.3574 13.5449-14.9316 9.23828-14.9316C4.94141-14.9316 1.36719-11.3574 1.36719-7.05078C1.36719-2.74414 4.95117 0.830078 9.24805 0.830078ZM9.24805-0.654297C5.70312-0.654297 2.87109-3.49609 2.87109-7.05078C2.87109-10.6055 5.69336-13.4473 9.23828-13.4473C12.793-13.4473 15.6445-10.6055 15.6445-7.05078C15.6445-3.49609 12.8027-0.654297 9.24805-0.654297ZM5.6543-7.05078C5.6543-6.62109 5.95703-6.32812 6.40625-6.32812L8.50586-6.32812L8.50586-4.20898C8.50586-3.76953 8.79883-3.4668 9.22852-3.4668C9.67773-3.4668 9.9707-3.76953 9.9707-4.20898L9.9707-6.32812L12.0898-6.32812C12.5293-6.32812 12.832-6.62109 12.832-7.05078C12.832-7.49023 12.5293-7.79297 12.0898-7.79297L9.9707-7.79297L9.9707-9.90234C9.9707-10.3516 9.67773-10.6543 9.22852-10.6543C8.79883-10.6543 8.50586-10.3516 8.50586-9.90234L8.50586-7.79297L6.40625-7.79297C5.95703-7.79297 5.6543-7.49023 5.6543-7.05078Z"/>
  </g>
  <g transform="matrix(1 0 0 1 281.867 1933)">
   <path d="M11.709 2.91016C17.1582 2.91016 21.6699-1.61133 21.6699-7.05078C21.6699-12.5 17.1484-17.0117 11.6992-17.0117C6.25977-17.0117 1.74805-12.5 1.74805-7.05078C1.74805-1.61133 6.26953 2.91016 11.709 2.91016ZM11.709 1.25C7.09961 1.25 3.41797-2.44141 3.41797-7.05078C3.41797-11.6602 7.08984-15.3516 11.6992-15.3516C16.3086-15.3516 20.0098-11.6602 20.0098-7.05078C20.0098-2.44141 16.3184 1.25 11.709 1.25ZM7.17773-7.05078C7.17773-6.57227 7.50977-6.25 8.00781-6.25L10.8789-6.25L10.8789-3.36914C10.8789-2.88086 11.2109-2.53906 11.6895-2.53906C12.1777-2.53906 12.5195-2.87109 12.5195-3.36914L12.5195-6.25L15.4004-6.25C15.8887-6.25 16.2305-6.57227 16.2305-7.05078C16.2305-7.53906 15.8887-7.88086 15.4004-7.88086L12.5195-7.88086L12.5195-10.752C12.5195-11.25 12.1777-11.5918 11.6895-11.5918C11.2109-11.5918 10.8789-11.25 10.8789-10.752L10.8789-7.88086L8.00781-7.88086C7.50977-7.88086 7.17773-7.53906 7.17773-7.05078Z"/>
  </g>
  <g transform="matrix(1 0 0 1 305.646 1933)">
   <path d="M14.9707 5.66406C21.9336 5.66406 27.6953-0.0976562 27.6953-7.05078C27.6953-14.0137 21.9238-19.7754 14.9609-19.7754C8.00781-19.7754 2.25586-14.0137 2.25586-7.05078C2.25586-0.0976562 8.01758 5.66406 14.9707 5.66406ZM14.9707 3.84766C8.93555 3.84766 4.08203-1.01562 4.08203-7.05078C4.08203-13.0957 8.92578-17.9492 14.9609-17.9492C21.0059-17.9492 25.8691-13.0957 25.8691-7.05078C25.8691-1.01562 21.0156 3.84766 14.9707 3.84766ZM9.19922-7.05078C9.19922-6.5332 9.57031-6.17188 10.1172-6.17188L14.0625-6.17188L14.0625-2.2168C14.0625-1.67969 14.4336-1.29883 14.9512-1.29883C15.4883-1.29883 15.8594-1.66992 15.8594-2.2168L15.8594-6.17188L19.8145-6.17188C20.3516-6.17188 20.7324-6.5332 20.7324-7.05078C20.7324-7.59766 20.3613-7.96875 19.8145-7.96875L15.8594-7.96875L15.8594-11.9141C15.8594-12.4609 15.4883-12.8418 14.9512-12.8418C14.4336-12.8418 14.0625-12.4609 14.0625-11.9141L14.0625-7.96875L10.1172-7.96875C9.57031-7.96875 9.19922-7.59766 9.19922-7.05078Z"/>
  </g>
  <text style="stroke:none;fill:black;font-family:sans-serif;font-size:13;font-weight:bold;" transform="matrix(1 0 0 1 263 1953)">Design Variations</text>
  <text style="stroke:none;fill:black;font-family:sans-serif;font-size:13;" transform="matrix(1 0 0 1 263 1971)">Symbols are supported in up to nine weights and three scales.</text>
  <text style="stroke:none;fill:black;font-family:sans-serif;font-size:13;" transform="matrix(1 0 0 1 263 1989)">For optimal layout with text and other symbols, vertically align</text>
  <text style="stroke:none;fill:black;font-family:sans-serif;font-size:13;" transform="matrix(1 0 0 1 263 2007)">symbols with the adjacent text.</text>
  <line style="fill:none;stroke:#00AEEF;stroke-width:0.5;opacity:1.0;" x1="776" x2="776" y1="1919" y2="1933"/>
  <g transform="matrix(1 0 0 1 776 1933)">
   <path d="M3.31055 0.15625C3.82812 0.15625 4.08203-0.0390625 4.26758-0.585938L5.52734-4.0332L11.2891-4.0332L12.5488-0.585938C12.7344-0.0390625 12.9883 0.15625 13.4961 0.15625C14.0137 0.15625 14.3457-0.15625 14.3457-0.644531C14.3457-0.810547 14.3164-0.966797 14.2383-1.17188L9.6582-13.3691C9.43359-13.9648 9.0332-14.2676 8.4082-14.2676C7.80273-14.2676 7.39258-13.9746 7.17773-13.3789L2.59766-1.16211C2.51953-0.957031 2.49023-0.800781 2.49023-0.634766C2.49023-0.146484 2.80273 0.15625 3.31055 0.15625ZM6.00586-5.51758L8.37891-12.0898L8.42773-12.0898L10.8008-5.51758Z"/>
  </g>
  <line style="fill:none;stroke:#00AEEF;stroke-width:0.5;opacity:1.0;" x1="793.197" x2="793.197" y1="1919" y2="1933"/>
  <text style="stroke:none;fill:black;font-family:sans-serif;font-size:13;font-weight:bold;" transform="matrix(1 0 0 1 776 1953)">Margins</text>
  <text style="stroke:none;fill:black;font-family:sans-serif;font-size:13;" transform="matrix(1 0 0 1 776 1971)">Leading and trailing margins on the left and right side of each symbol</text>
  <text style="stroke:none;fill:black;font-family:sans-serif;font-size:13;" transform="matrix(1 0 0 1 776 1989)">can be adjusted by modifying the x-location of the margin guidelines.</text>
  <text style="stroke:none;fill:black;font-family:sans-serif;font-size:13;" transform="matrix(1 0 0 1 776 2007)">Modifications are automatically applied proportionally to all</text>
  <text style="stroke:none;fill:black;font-family:sans-serif;font-size:13;" transform="matrix(1 0 0 1 776 2025)">scales and weights.</text>
  <g transform="matrix(1 0 0 1 1289 1933)">
   <path d="M2.8418 1.86523L4.54102 3.57422C5.40039 4.44336 6.38672 4.38477 7.31445 3.35938L18.0078-8.42773L17.041-9.4043L6.42578 2.27539C6.07422 2.67578 5.74219 2.77344 5.27344 2.30469L4.10156 1.14258C3.63281 0.683594 3.74023 0.341797 4.14062-0.0195312L15.6152-10.8203L14.6387-11.7871L3.04688-0.898438C2.06055 0.0195312 1.98242 0.996094 2.8418 1.86523ZM9.25781-16.3281C8.83789-15.918 8.80859-15.3418 9.04297-14.9512C9.27734-14.5898 9.73633-14.3555 10.3809-14.5215C11.8457-14.8633 13.3691-14.9219 14.7949-13.9844L14.209-12.5293C13.8672-11.6992 14.043-11.1133 14.5801-10.5664L16.875-8.25195C17.3633-7.76367 17.7734-7.74414 18.3398-7.8418L19.4043-8.03711L20.0684-7.36328L20.0293-6.80664C19.9902-6.30859 20.1172-5.92773 20.6055-5.44922L21.3672-4.70703C21.8457-4.22852 22.4609-4.19922 22.9297-4.66797L25.8398-7.58789C26.3086-8.05664 26.2891-8.65234 25.8105-9.13086L25.0391-9.89258C24.5605-10.3711 24.1895-10.5273 23.7109-10.4883L23.1348-10.4395L22.4902-11.0742L22.7344-12.1973C22.8613-12.7637 22.7051-13.2031 22.1191-13.7891L19.9219-15.9766C16.582-19.2969 12.1484-19.2188 9.25781-16.3281ZM10.752-15.957C13.1836-17.7344 16.4746-17.4316 18.7012-15.2051L21.1328-12.793C21.3672-12.5586 21.4062-12.373 21.3379-12.0312L21.0156-10.5469L22.5195-9.0625L23.5059-9.12109C23.7598-9.13086 23.8379-9.11133 24.0332-8.91602L24.6094-8.33984L22.168-5.89844L21.5918-6.47461C21.3965-6.66992 21.3672-6.74805 21.377-7.01172L21.4453-7.98828L19.9512-9.47266L18.4277-9.21875C18.1055-9.15039 17.959-9.17969 17.7148-9.41406L15.7129-11.416C15.459-11.6504 15.4297-11.8164 15.5859-12.1875L16.4648-14.2773C14.9023-15.7324 12.8711-16.3574 10.8398-15.7617C10.6836-15.7227 10.625-15.8496 10.752-15.957Z"/>
  </g>
  <text style="stroke:none;fill:black;font-family:sans-serif;font-size:13;font-weight:bold;" transform="matrix(1 0 0 1 1289 1953)">Exporting</text>
  <text style="stroke:none;fill:black;font-family:sans-serif;font-size:13;" transform="matrix(1 0 0 1 1289 1971)">Symbols should be outlined when exporting to ensure the</text>
  <text style="stroke:none;fill:black;font-family:sans-serif;font-size:13;" transform="matrix(1 0 0 1 1289 1989)">design is preserved when submitting to Xcode.</text>
  <text id="template-version" style="stroke:none;fill:black;font-family:sans-serif;font-size:13;text-anchor:end;" transform="matrix(1 0 0 1 3036 1933)">Template v.4.0</text>
  <text style="stroke:none;fill:black;font-family:sans-serif;font-size:13;text-anchor:end;" transform="matrix(1 0 0 1 3036 1951)">Requires Xcode 14 or greater</text>
  <text id="descriptive-name" style="stroke:none;fill:black;font-family:sans-serif;font-size:13;text-anchor:end;" transform="matrix(1 0 0 1 3036 1969)">Generated from hydra</text>
  <text style="stroke:none;fill:black;font-family:sans-serif;font-size:13;text-anchor:end;" transform="matrix(1 0 0 1 3036 1987)">Typeset at 100 points</text>
  <text style="stroke:none;fill:black;font-family:sans-serif;font-size:13;" transform="matrix(1 0 0 1 263 726)">Small</text>
  <text style="stroke:none;fill:black;font-family:sans-serif;font-size:13;" transform="matrix(1 0 0 1 263 1156)">Medium</text>
  <text style="stroke:none;fill:black;font-family:sans-serif;font-size:13;" transform="matrix(1 0 0 1 263 1586)">Large</text>
 </g>
 <g id="Guides">
  <g id="H-reference" style="fill:#27AAE1;stroke:none;" transform="matrix(1 0 0 1 339 696)">
   <path d="M0.993654 0L3.63775 0L29.3281-67.1323L30.0303-67.1323L30.0303-70.459L28.1226-70.459ZM11.6885-24.4799L46.9815-24.4799L46.2315-26.7285L12.4385-26.7285ZM55.1196 0L57.7637 0L30.6382-70.459L29.4326-70.459L29.4326-67.1323Z"/>
  </g>
  <line id="Baseline-S" style="fill:none;stroke:#27AAE1;opacity:1;stroke-width:0.5;" x1="263" x2="3036" y1="696" y2="696"/>
  <line id="Capline-S" style="fill:none;stroke:#27AAE1;opacity:1;stroke-width:0.5;" x1="263" x2="3036" y1="625.541" y2="625.541"/>
  <g id="H-reference" style="fill:#27AAE1;stroke:none;" transform="matrix(1 0 0 1 339 1126)">
   <path d="M0.993654 0L3.63775 0L29.3281-67.1323L30.0303-67.1323L30.0303-70.459L28.1226-70.459ZM11.6885-24.4799L46.9815-24.4799L46.2315-26.7285L12.4385-26.7285ZM55.1196 0L57.7637 0L30.6382-70.459L29.4326-70.459L29.4326-67.1323Z"/>
  </g>
  <line id="Baseline-M" style="fill:none;stroke:#27AAE1;opacity:1;stroke-width:0.5;" x1="263" x2="3036" y1="1126" y2="1126"/>
  <line id="Capline-M" style="fill:none;stroke:#27AAE1;opacity:1;stroke-width:0.5;" x1="263" x2="3036" y1="1055.54" y2="1055.54"/>
  <g id="H-reference" style="fill:#27AAE1;stroke:none;" transform="matrix(1 0 0 1 339 1556)">
   <path d="M0.993654 0L3.63775 0L29.3281-67.1323L30.0303-67.1323L30.0303-70.459L28.1226-70.459ZM11.6885-24.4799L46.9815-24.4799L46.2315-26.7285L12.4385-26.7285ZM55.1196 0L57.7637 0L30.6382-70.459L29.4326-70.459L29.4326-67.1323Z"/>
  </g>
  <line id="Baseline-L" style="fill:none;stroke:#27AAE1;opacity:1;stroke-width:0.5;" x1="263" x2="3036" y1="1556" y2="1556"/>
  <line id="Capline-L" style="fill:none;stroke:#27AAE1;opacity:1;stroke-width:0.5;" x1="263" x2="3036" y1="1485.54" y2="1485.54"/>
  <line id="left-margin-Ultralight-S" style="fill:none;stroke:#00AEEF;stroke-width:0.5;opacity:1.0;" x1="501.702" x2="501.702" y1="600.785" y2="720.121"/>
  <line id="right-margin-Ultralight-S" style="fill:none;stroke:#00AEEF;stroke-width:0.5;opacity:1.0;" x1="617.720" x2="617.720" y1="600.785" y2="720.121"/>
  <line id="left-margin-Regular-S" style="fill:none;stroke:#00AEEF;stroke-width:0.5;opacity:1.0;" x1="1391.071" x2="1391.071" y1="600.785" y2="720.121"/>
  <line id="right-margin-Regular-S" style="fill:none;stroke:#00AEEF;stroke-width:0.5;opacity:1.0;" x1="1508.609" x2="1508.609" y1="600.785" y2="720.121"/>
  <line id="left-margin-Black-S" style="fill:none;stroke:#00AEEF;stroke-width:0.5;opacity:1.0;" x1="2873.824" x2="2873.824" y1="600.785" y2="720.121"/>
  <line id="right-margin-Black-S" style="fill:none;stroke:#00AEEF;stroke-width:0.5;opacity:1.0;" x1="2992.976" x2="2992.976" y1="600.785" y2="720.121"/>
 </g>
 <g id="Symbols">
  <g id="Black-S" transform="matrix(1 0 0 1 2873.824 696)">
   <path class="monochrome-0 multicolor-0:tintColor hierarchical-0:secondary SFSymbolsPreview8E8E8E" d="M101.610 -48.023L96.760 -50.035C94.464 -50.987 93.375 -53.620 94.328 -55.916C95.280 -58.212 97.913 -59.300 100.209 -58.349L105.059 -56.336C107.355 -55.383 108.443 -52.751 107.491 -50.455C106.538 -48.160 103.905 -47.071 101.610 -48.023ZM78.321 -52.553L73.228 -51.928C70.761 -51.626 68.516 -53.380 68.214 -55.847C67.911 -58.314 69.666 -60.559 72.133 -60.861L77.226 -61.486C79.693 -61.788 81.938 -60.034 82.240 -57.567C82.543 -55.100 80.788 -52.855 78.321 -52.553ZM65.326 -43.868L64.803 -38.776C64.550 -36.303 62.340 -34.505 59.868 -34.759C57.395 -35.011 55.597 -37.221 55.850 -39.695L56.373 -44.787C56.627 -47.260 58.836 -49.058 61.309 -48.805C63.781 -48.550 65.580 -46.341 65.326 -43.868ZM48.500 -20.915L43.527 -19.941C41.088 -19.464 38.724 -21.053 38.246 -23.492C37.769 -25.931 39.359 -28.296 41.797 -28.774L46.771 -29.748C49.210 -30.225 51.574 -28.635 52.052 -26.196C52.529 -23.757 50.939 -21.393 48.500 -20.915ZM23.756 -14.024L18.935 -12.052C16.635 -11.111 14.007 -12.213 13.066 -14.514C12.125 -16.814 13.227 -19.441 15.528 -20.382L20.349 -22.354C22.649 -23.294 25.276 -22.193 26.217 -19.892C27.158 -17.591 26.056 -14.965 23.756 -14.024Z"/>
   <path class="monochrome-1 multicolor-1:tintColor hierarchical-1:primary SFSymbolsPreview212121" d="M64.265 -27.582C64.265 -24.747 61.967 -22.448 59.131 -22.448C56.296 -22.448 53.997 -24.747 53.997 -27.582C53.997 -30.418 56.296 -32.715 59.131 -32.715C61.967 -32.715 64.265 -30.418 64.265 -27.582ZM116.151 -48.315C116.151 -46.380 114.583 -44.812 112.648 -44.812C110.713 -44.812 109.145 -46.380 109.145 -48.315C109.145 -50.249 110.713 -51.818 112.648 -51.818C114.583 -51.818 116.151 -50.249 116.151 -48.315ZM92.730 -58.334C92.730 -55.998 90.837 -54.106 88.502 -54.106C86.167 -54.106 84.274 -55.998 84.274 -58.334C84.274 -60.669 86.167 -62.562 88.502 -62.562C90.837 -62.562 92.730 -60.669 92.730 -58.334ZM11.456 -12.126C11.456 -9.790 9.563 -7.898 7.228 -7.898C4.893 -7.898 3.000 -9.790 3.000 -12.126C3.000 -14.461 4.893 -16.354 7.228 -16.354C9.563 -16.354 11.456 -14.461 11.456 -12.126ZM36.284 -22.280C36.284 -19.945 34.391 -18.052 32.056 -18.052C29.721 -18.052 27.828 -19.945 27.828 -22.280C27.828 -24.616 29.721 -26.508 32.056 -26.508C34.391 -26.508 36.284 -24.616 36.284 -22.280ZM66.181 -55.080C66.181 -52.745 64.288 -50.852 61.953 -50.852C59.618 -50.852 57.725 -52.745 57.725 -55.080C57.725 -57.415 59.618 -59.308 61.953 -59.308C64.288 -59.308 66.181 -57.415 66.181 -55.080Z"/>
  </g>
  <g id="Regular-S" transform="matrix(1 0 0 1 1391.071 696)">
   <path class="monochrome-0 multicolor-0:tintColor hierarchical-0:secondary SFSymbolsPreview8E8E8E" d="M104.078 -48.528L93.729 -52.822C92.327 -53.404 91.661 -55.013 92.243 -56.416C92.825 -57.819 94.434 -58.484 95.837 -57.901L106.186 -53.608C107.589 -53.026 108.254 -51.416 107.672 -50.014C107.090 -48.611 105.481 -47.946 104.078 -48.528ZM80.256 -54.660L69.104 -53.294C67.596 -53.109 66.224 -54.181 66.039 -55.689C65.855 -57.196 66.927 -58.568 68.434 -58.752L79.587 -60.120C81.094 -60.305 82.466 -59.233 82.651 -57.725C82.836 -56.218 81.763 -54.846 80.256 -54.660ZM63.015 -47.083L61.850 -35.730C61.695 -34.220 60.344 -33.120 58.833 -33.276C57.323 -33.431 56.223 -34.781 56.378 -36.291L57.543 -47.645C57.698 -49.156 59.049 -50.255 60.560 -50.099C62.070 -49.945 63.170 -48.594 63.015 -47.083ZM50.463 -23.255L39.314 -21.072C37.823 -20.780 36.378 -21.752 36.086 -23.242C35.795 -24.733 36.766 -26.178 38.257 -26.470L49.406 -28.653C50.896 -28.945 52.341 -27.973 52.633 -26.483C52.925 -24.992 51.953 -23.547 50.463 -23.255ZM25.036 -16.799L14.566 -12.516C13.160 -11.941 11.554 -12.615 10.979 -14.021C10.404 -15.426 11.078 -17.032 12.483 -17.607L22.954 -21.890C24.360 -22.465 25.965 -21.791 26.540 -20.385C27.115 -18.980 26.442 -17.373 25.036 -16.799Z"/>
   <path class="monochrome-1 multicolor-1:tintColor hierarchical-1:primary SFSymbolsPreview212121" d="M62.312 -27.582C62.312 -25.339 60.493 -23.519 58.249 -23.519C56.005 -23.519 54.186 -25.339 54.186 -27.582C54.186 -29.826 56.005 -31.645 58.249 -31.645C60.493 -31.645 62.312 -29.826 62.312 -27.582ZM114.538 -48.315C114.538 -46.784 113.297 -45.543 111.766 -45.543C110.235 -45.543 108.993 -46.784 108.993 -48.315C108.993 -49.846 110.235 -51.088 111.766 -51.088C113.297 -51.088 114.538 -49.846 114.538 -48.315ZM90.966 -58.334C90.966 -56.487 89.468 -54.987 87.620 -54.987C85.772 -54.987 84.274 -56.487 84.274 -58.334C84.274 -60.181 85.772 -61.680 87.620 -61.680C89.468 -61.680 90.966 -60.181 90.966 -58.334ZM9.692 -12.126C9.692 -10.277 8.194 -8.780 6.346 -8.780C4.498 -8.780 3.000 -10.277 3.000 -12.126C3.000 -13.973 4.498 -15.472 6.346 -15.472C8.194 -15.472 9.692 -13.973 9.692 -12.126ZM34.520 -22.280C34.520 -20.433 33.022 -18.934 31.174 -18.934C29.326 -18.934 27.828 -20.433 27.828 -22.280C27.828 -24.128 29.326 -25.626 31.174 -25.626C33.022 -25.626 34.520 -24.128 34.520 -22.280ZM64.417 -55.080C64.417 -53.231 62.919 -51.734 61.071 -51.734C59.223 -51.734 57.725 -53.231 57.725 -55.080C57.725 -56.928 59.223 -58.425 61.071 -58.425C62.919 -58.425 64.417 -56.928 64.417 -55.080Z"/>
  </g>
  <g id="Ultralight-S" transform="matrix(1 0 0 1 501.702 696)">
   <path class="monochrome-0 multicolor-0:tintColor hierarchical-0:secondary SFSymbolsPreview8E8E8E" d="M106.405 -49.004L90.873 -55.449C90.312 -55.681 90.046 -56.325 90.278 -56.886C90.511 -57.448 91.155 -57.714 91.716 -57.481L107.249 -51.035C107.810 -50.803 108.076 -50.159 107.843 -49.598C107.610 -49.037 106.967 -48.770 106.405 -49.004ZM82.080 -56.648L65.216 -54.581C64.613 -54.508 64.064 -54.936 63.990 -55.538C63.916 -56.142 64.345 -56.691 64.948 -56.764L81.813 -58.833C82.416 -58.907 82.964 -58.478 83.038 -57.874C83.112 -57.272 82.683 -56.722 82.080 -56.648ZM60.836 -50.114L59.065 -32.858C59.003 -32.255 58.463 -31.815 57.859 -31.877C57.255 -31.939 56.815 -32.479 56.877 -33.084L58.647 -50.339C58.709 -50.943 59.250 -51.383 59.854 -51.321C60.458 -51.258 60.898 -50.719 60.836 -50.114ZM52.313 -25.462L35.342 -22.138C34.745 -22.022 34.167 -22.410 34.051 -23.007C33.934 -23.602 34.323 -24.181 34.919 -24.297L51.891 -27.620C52.487 -27.738 53.065 -27.349 53.182 -26.753C53.298 -26.157 52.910 -25.579 52.313 -25.462ZM26.244 -19.416L10.446 -12.954C9.884 -12.724 9.242 -12.994 9.012 -13.556C8.782 -14.118 9.051 -14.760 9.614 -14.990L25.411 -21.452C25.973 -21.681 26.616 -21.412 26.846 -20.849C27.076 -20.288 26.806 -19.646 26.244 -19.416Z"/>
   <path class="monochrome-1 multicolor-1:tintColor hierarchical-1:primary SFSymbolsPreview212121" d="M60.471 -27.582C60.471 -25.896 59.104 -24.529 57.418 -24.529C55.732 -24.529 54.365 -25.896 54.365 -27.582C54.365 -29.269 55.732 -30.636 57.418 -30.636C59.104 -30.636 60.471 -29.269 60.471 -27.582ZM113.018 -48.315C113.018 -47.165 112.085 -46.232 110.935 -46.232C109.784 -46.232 108.851 -47.165 108.851 -48.315C108.851 -49.466 109.784 -50.398 110.935 -50.398C112.085 -50.398 113.018 -49.466 113.018 -48.315ZM89.303 -58.334C89.303 -56.946 88.177 -55.820 86.789 -55.820C85.400 -55.820 84.274 -56.946 84.274 -58.334C84.274 -59.722 85.400 -60.849 86.789 -60.849C88.177 -60.849 89.303 -59.722 89.303 -58.334ZM8.029 -12.126C8.029 -10.737 6.903 -9.611 5.515 -9.611C4.126 -9.611 3.000 -10.737 3.000 -12.126C3.000 -13.514 4.126 -14.640 5.515 -14.640C6.903 -14.640 8.029 -13.514 8.029 -12.126ZM32.857 -22.280C32.857 -20.892 31.731 -19.766 30.343 -19.766C28.954 -19.766 27.828 -20.892 27.828 -22.280C27.828 -23.669 28.954 -24.794 30.343 -24.794C31.731 -24.794 32.857 -23.669 32.857 -22.280ZM62.754 -55.080C62.754 -53.691 61.628 -52.565 60.240 -52.565C58.851 -52.565 57.725 -53.691 57.725 -55.080C57.725 -56.468 58.851 -57.594 60.240 -57.594C61.628 -57.594 62.754 -56.468 62.754 -55.080Z"/>
  </g>
 </g>
</svg>
