<?xml version="1.0" encoding="UTF-8"?>
<!--Generator: Apple Native CoreSVG 228-->
<!DOCTYPE svg
PUBLIC "-//W3C//DTD SVG 1.1//EN"
       "http://www.w3.org/Graphics/SVG/1.1/DTD/svg11.dtd">
<svg version="1.1" xmlns="http://www.w3.org/2000/svg" xmlns:xlink="http://www.w3.org/1999/xlink" width="3300" height="2200">
 <!--glyph: "", point size: 100.0, font version: "19.0d5e1internal", template writer version: "101"-->
 <style>.monochrome-0 {fill:#000000}
.monochrome-1 {fill:#000000}

.multicolor-0:tintColor {fill:#007AFF}
.multicolor-1:tintColor {fill:#007AFF}

.hierarchical-0:secondary {fill:#8E8E8E}
.hierarchical-1:primary {fill:#212121}

.SFSymbolsPreview8E8E8E {fill:#8E8E8E;opacity:1.0}
.SFSymbolsPreview212121 {fill:#212121;opacity:1.0}
</style>
 <g id="Notes">
  <rect height="2200" id="artboard" style="fill:white;opacity:1" width="3300" x="0" y="0"/>
  <line style="fill:none;stroke:black;opacity:1;stroke-width:0.5;" x1="263" x2="3036" y1="292" y2="292"/>
  <text style="stroke:none;fill:black;font-family:sans-serif;font-size:13;font-weight:bold;" transform="matrix(1 0 0 1 263 322)">Weight/Scale Variations</text>
  <text style="stroke:none;fill:black;font-family:sans-serif;font-size:13;text-anchor:middle;" transform="matrix(1 0 0 1 559.711 322)">Ultralight</text>
  <text style="stroke:none;fill:black;font-family:sans-serif;font-size:13;text-anchor:middle;" transform="matrix(1 0 0 1 856.422 322)">Thin</text>
  <text style="stroke:none;fill:black;font-family:sans-serif;font-size:13;text-anchor:middle;" transform="matrix(1 0 0 1 1153.13 322)">Light</text>
  <text style="stroke:none;fill:black;font-family:sans-serif;font-size:13;text-anchor:middle;" transform="matrix(1 0 0 1 1449.84 322)">Regular</text>
  <text style="stroke:none;fill:black;font-family:sans-serif;font-size:13;text-anchor:middle;" transform="matrix(1 0 0 1 1746.56 322)">Medium</text>
  <text style="stroke:none;fill:black;font-family:sans-serif;font-size:13;text-anchor:middle;" transform="matrix(1 0 0 1 2043.27 322)">Semibold</text>
  <text style="stroke:none;fill:black;font-family:sans-serif;font-size:13;text-anchor:middle;" transform="matrix(1 0 0 1 2339.98 322)">Bold</text>
  <text style="stroke:none;fill:black;font-family:sans-serif;font-size:13;text-anchor:middle;" transform="matrix(1 0 0 1 2636.69 322)">Heavy</text>
  <text style="stroke:none;fill:black;font-family:sans-serif;font-size:13;text-anchor:middle;" transform="matrix(1 0 0 1 2933.4 322)">Black</text>
  <line style="fill:none;stroke:black;opacity:1;stroke-width:0.5;" x1="263" x2="3036" y1="1903" y2="1903"/>
  <g transform="matrix(1 0 0 1 263 1933)">
   <path d="M9.24805 0.830078C13.5547 0.830078 17.1387-2.74414 17.1387-7.05078C17.1387-11.3574 13.5449-14.9316 9.23828-14.9316C4.94141-14.9316 1.36719-11.3574 1.36719-7.05078C1.36719-2.74414 4.95117 0.830078 9.24805 0.830078ZM9.24805-0.654297C5.70312-0.654297 2.87109-3.49609 2.87109-7.05078C2.87109-10.6055 5.69336-13.4473 9.23828-13.4473C12.793-13.4473 15.6445-10.6055 15.6445-7.05078C15.6445-3.49609 12.8027-0.654297 9.24805-0.654297ZM5.6543-7.05078C5.6543-6.62109 5.95703-6.32812 6.40625-6.32812L8.50586-6.32812L8.50586-4.20898C8.50586-3.76953 8.79883-3.4668 9.22852-3.4668C9.67773-3.4668 9.9707-3.76953 9.9707-4.20898L9.9707-6.32812L12.0898-6.32812C12.5293-6.32812 12.832-6.62109 12.832-7.05078C12.832-7.49023 12.5293-7.79297 12.0898-7.79297L9.9707-7.79297L9.9707-9.90234C9.9707-10.3516 9.67773-10.6543 9.22852-10.6543C8.79883-10.6543 8.50586-10.3516 8.50586-9.90234L8.50586-7.79297L6.40625-7.79297C5.95703-7.79297 5.6543-7.49023 5.6543-7.05078Z"/>
  </g>
  <g transform="matrix(1 0 0 1 281.867 1933)">
   <path d="M11.709 2.91016C17.1582 2.91016 21.6699-1.61133 21.6699-7.05078C21.6699-12.5 17.1484-17.0117 11.6992-17.0117C6.25977-17.0117 1.74805-12.5 1.74805-7.05078C1.74805-1.61133 6.26953 2.91016 11.709 2.91016ZM11.709 1.25C7.09961 1.25 3.41797-2.44141 3.41797-7.05078C3.41797-11.6602 7.08984-15.3516 11.6992-15.3516C16.3086-15.3516 20.0098-11.6602 20.0098-7.05078C20.0098-2.44141 16.3184 1.25 11.709 1.25ZM7.17773-7.05078C7.17773-6.57227 7.50977-6.25 8.00781-6.25L10.8789-6.25L10.8789-3.36914C10.8789-2.88086 11.2109-2.53906 11.6895-2.53906C12.1777-2.53906 12.5195-2.87109 12.5195-3.36914L12.5195-6.25L15.4004-6.25C15.8887-6.25 16.2305-6.57227 16.2305-7.05078C16.2305-7.53906 15.8887-7.88086 15.4004-7.88086L12.5195-7.88086L12.5195-10.752C12.5195-11.25 12.1777-11.5918 11.6895-11.5918C11.2109-11.5918 10.8789-11.25 10.8789-10.752L10.8789-7.88086L8.00781-7.88086C7.50977-7.88086 7.17773-7.53906 7.17773-7.05078Z"/>
  </g>
  <g transform="matrix(1 0 0 1 305.646 1933)">
   <path d="M14.9707 5.66406C21.9336 5.66406 27.6953-0.0976562 27.6953-7.05078C27.6953-14.0137 21.9238-19.7754 14.9609-19.7754C8.00781-19.7754 2.25586-14.0137 2.25586-7.05078C2.25586-0.0976562 8.01758 5.66406 14.9707 5.66406ZM14.9707 3.84766C8.93555 3.84766 4.08203-1.01562 4.08203-7.05078C4.08203-13.0957 8.92578-17.9492 14.9609-17.9492C21.0059-17.9492 25.8691-13.0957 25.8691-7.05078C25.8691-1.01562 21.0156 3.84766 14.9707 3.84766ZM9.19922-7.05078C9.19922-6.5332 9.57031-6.17188 10.1172-6.17188L14.0625-6.17188L14.0625-2.2168C14.0625-1.67969 14.4336-1.29883 14.9512-1.29883C15.4883-1.29883 15.8594-1.66992 15.8594-2.2168L15.8594-6.17188L19.8145-6.17188C20.3516-6.17188 20.7324-6.5332 20.7324-7.05078C20.7324-7.59766 20.3613-7.96875 19.8145-7.96875L15.8594-7.96875L15.8594-11.9141C15.8594-12.4609 15.4883-12.8418 14.9512-12.8418C14.4336-12.8418 14.0625-12.4609 14.0625-11.9141L14.0625-7.96875L10.1172-7.96875C9.57031-7.96875 9.19922-7.59766 9.19922-7.05078Z"/>
  </g>
  <text style="stroke:none;fill:black;font-family:sans-serif;font-size:13;font-weight:bold;" transform="matrix(1 0 0 1 263 1953)">Design Variations</text>
  <text style="stroke:none;fill:black;font-family:sans-serif;font-size:13;" transform="matrix(1 0 0 1 263 1971)">Symbols are supported in up to nine weights and three scales.</text>
  <text style="stroke:none;fill:black;font-family:sans-serif;font-size:13;" transform="matrix(1 0 0 1 263 1989)">For optimal layout with text and other symbols, vertically align</text>
  <text style="stroke:none;fill:black;font-family:sans-serif;font-size:13;" transform="matrix(1 0 0 1 263 2007)">symbols with the adjacent text.</text>
  <line style="fill:none;stroke:#00AEEF;stroke-width:0.5;opacity:1.0;" x1="776" x2="776" y1="1919" y2="1933"/>
  <g transform="matrix(1 0 0 1 776 1933)">
   <path d="M3.31055 0.15625C3.82812 0.15625 4.08203-0.0390625 4.26758-0.585938L5.52734-4.0332L11.2891-4.0332L12.5488-0.585938C12.7344-0.0390625 12.9883 0.15625 13.4961 0.15625C14.0137 0.15625 14.3457-0.15625 14.3457-0.644531C14.3457-0.810547 14.3164-0.966797 14.2383-1.17188L9.6582-13.3691C9.43359-13.9648 9.0332-14.2676 8.4082-14.2676C7.80273-14.2676 7.39258-13.9746 7.17773-13.3789L2.59766-1.16211C2.51953-0.957031 2.49023-0.800781 2.49023-0.634766C2.49023-0.146484 2.80273 0.15625 3.31055 0.15625ZM6.00586-5.51758L8.37891-12.0898L8.42773-12.0898L10.8008-5.51758Z"/>
  </g>
  <line style="fill:none;stroke:#00AEEF;stroke-width:0.5;opacity:1.0;" x1="793.197" x2="793.197" y1="1919" y2="1933"/>
  <text style="stroke:none;fill:black;font-family:sans-serif;font-size:13;font-weight:bold;" transform="matrix(1 0 0 1 776 1953)">Margins</text>
  <text style="stroke:none;fill:black;font-family:sans-serif;font-size:13;" transform="matrix(1 0 0 1 776 1971)">Leading and trailing margins on the left and right side of each symbol</text>
  <text style="stroke:none;fill:black;font-family:sans-serif;font-size:13;" transform="matrix(1 0 0 1 776 1989)">can be adjusted by modifying the x-location of the margin guidelines.</text>
  <text style="stroke:none;fill:black;font-family:sans-serif;font-size:13;" transform="matrix(1 0 0 1 776 2007)">Modifications are automatically applied proportionally to all</text>
  <text style="stroke:none;fill:black;font-family:sans-serif;font-size:13;" transform="matrix(1 0 0 1 776 2025)">scales and weights.</text>
  <g transform="matrix(1 0 0 1 1289 1933)">
   <path d="M2.8418 1.86523L4.54102 3.57422C5.40039 4.44336 6.38672 4.38477 7.31445 3.35938L18.0078-8.42773L17.041-9.4043L6.42578 2.27539C6.07422 2.67578 5.74219 2.77344 5.27344 2.30469L4.10156 1.14258C3.63281 0.683594 3.74023 0.341797 4.14062-0.0195312L15.6152-10.8203L14.6387-11.7871L3.04688-0.898438C2.06055 0.0195312 1.98242 0.996094 2.8418 1.86523ZM9.25781-16.3281C8.83789-15.918 8.80859-15.3418 9.04297-14.9512C9.27734-14.5898 9.73633-14.3555 10.3809-14.5215C11.8457-14.8633 13.3691-14.9219 14.7949-13.9844L14.209-12.5293C13.8672-11.6992 14.043-11.1133 14.5801-10.5664L16.875-8.25195C17.3633-7.76367 17.7734-7.74414 18.3398-7.8418L19.4043-8.03711L20.0684-7.36328L20.0293-6.80664C19.9902-6.30859 20.1172-5.92773 20.6055-5.44922L21.3672-4.70703C21.8457-4.22852 22.4609-4.19922 22.9297-4.66797L25.8398-7.58789C26.3086-8.05664 26.2891-8.65234 25.8105-9.13086L25.0391-9.89258C24.5605-10.3711 24.1895-10.5273 23.7109-10.4883L23.1348-10.4395L22.4902-11.0742L22.7344-12.1973C22.8613-12.7637 22.7051-13.2031 22.1191-13.7891L19.9219-15.9766C16.582-19.2969 12.1484-19.2188 9.25781-16.3281ZM10.752-15.957C13.1836-17.7344 16.4746-17.4316 18.7012-15.2051L21.1328-12.793C21.3672-12.5586 21.4062-12.373 21.3379-12.0312L21.0156-10.5469L22.5195-9.0625L23.5059-9.12109C23.7598-9.13086 23.8379-9.11133 24.0332-8.91602L24.6094-8.33984L22.168-5.89844L21.5918-6.47461C21.3965-6.66992 21.3672-6.74805 21.377-7.01172L21.4453-7.98828L19.9512-9.47266L18.4277-9.21875C18.1055-9.15039 17.959-9.17969 17.7148-9.41406L15.7129-11.416C15.459-11.6504 15.4297-11.8164 15.5859-12.1875L16.4648-14.2773C14.9023-15.7324 12.8711-16.3574 10.8398-15.7617C10.6836-15.7227 10.625-15.8496 10.752-15.957Z"/>
  </g>
  <text style="stroke:none;fill:black;font-family:sans-serif;font-size:13;font-weight:bold;" transform="matrix(1 0 0 1 1289 1953)">Exporting</text>
  <text style="stroke:none;fill:black;font-family:sans-serif;font-size:13;" transform="matrix(1 0 0 1 1289 1971)">Symbols should be outlined when exporting to ensure the</text>
  <text style="stroke:none;fill:black;font-family:sans-serif;font-size:13;" transform="matrix(1 0 0 1 1289 1989)">design is preserved when submitting to Xcode.</text>
  <text id="template-version" style="stroke:none;fill:black;font-family:sans-serif;font-size:13;text-anchor:end;" transform="matrix(1 0 0 1 3036 1933)">Template v.4.0</text>
  <text style="stroke:none;fill:black;font-family:sans-serif;font-size:13;text-anchor:end;" transform="matrix(1 0 0 1 3036 1951)">Requires Xcode 14 or greater</text>
  <text id="descriptive-name" style="stroke:none;fill:black;font-family:sans-serif;font-size:13;text-anchor:end;" transform="matrix(1 0 0 1 3036 1969)">Generated from lynx</text>
  <text style="stroke:none;fill:black;font-family:sans-serif;font-size:13;text-anchor:end;" transform="matrix(1 0 0 1 3036 1987)">Typeset at 100 points</text>
  <text style="stroke:none;fill:black;font-family:sans-serif;font-size:13;" transform="matrix(1 0 0 1 263 726)">Small</text>
  <text style="stroke:none;fill:black;font-family:sans-serif;font-size:13;" transform="matrix(1 0 0 1 263 1156)">Medium</text>
  <text style="stroke:none;fill:black;font-family:sans-serif;font-size:13;" transform="matrix(1 0 0 1 263 1586)">Large</text>
 </g>
 <g id="Guides">
  <g id="H-reference" style="fill:#27AAE1;stroke:none;" transform="matrix(1 0 0 1 339 696)">
   <path d="M0.993654 0L3.63775 0L29.3281-67.1323L30.0303-67.1323L30.0303-70.459L28.1226-70.459ZM11.6885-24.4799L46.9815-24.4799L46.2315-26.7285L12.4385-26.7285ZM55.1196 0L57.7637 0L30.6382-70.459L29.4326-70.459L29.4326-67.1323Z"/>
  </g>
  <line id="Baseline-S" style="fill:none;stroke:#27AAE1;opacity:1;stroke-width:0.5;" x1="263" x2="3036" y1="696" y2="696"/>
  <line id="Capline-S" style="fill:none;stroke:#27AAE1;opacity:1;stroke-width:0.5;" x1="263" x2="3036" y1="625.541" y2="625.541"/>
  <g id="H-reference" style="fill:#27AAE1;stroke:none;" transform="matrix(1 0 0 1 339 1126)">
   <path d="M0.993654 0L3.63775 0L29.3281-67.1323L30.0303-67.1323L30.0303-70.459L28.1226-70.459ZM11.6885-24.4799L46.9815-24.4799L46.2315-26.7285L12.4385-26.7285ZM55.1196 0L57.7637 0L30.6382-70.459L29.4326-70.459L29.4326-67.1323Z"/>
  </g>
  <line id="Baseline-M" style="fill:none;stroke:#27AAE1;opacity:1;stroke-width:0.5;" x1="263" x2="3036" y1="1126" y2="1126"/>
  <line id="Capline-M" style="fill:none;stroke:#27AAE1;opacity:1;stroke-width:0.5;" x1="263" x2="3036" y1="1055.54" y2="1055.54"/>
  <g id="H-reference" style="fill:#27AAE1;stroke:none;" transform="matrix(1 0 0 1 339 1556)">
   <path d="M0.993654 0L3.63775 0L29.3281-67.1323L30.0303-67.1323L30.0303-70.459L28.1226-70.459ZM11.6885-24.4799L46.9815-24.4799L46.2315-26.7285L12.4385-26.7285ZM55.1196 0L57.7637 0L30.6382-70.459L29.4326-70.459L29.4326-67.1323Z"/>
  </g>
  <line id="Baseline-L" style="fill:none;stroke:#27AAE1;opacity:1;stroke-width:0.5;" x1="263" x2="3036" y1="1556" y2="1556"/>
  <line id="Capline-L" style="fill:none;stroke:#27AAE1;opacity:1;stroke-width:0.5;" x1="263" x2="3036" y1="1485.54" y2="1485.54"/>
  <line id="left-margin-Ultralight-S" style="fill:none;stroke:#00AEEF;stroke-width:0.5;opacity:1.0;" x1="512.304" x2="512.304" y1="600.785" y2="720.121"/>
  <line id="right-margin-Ultralight-S" style="fill:none;stroke:#00AEEF;stroke-width:0.5;opacity:1.0;" x1="607.118" x2="607.118" y1="600.785" y2="720.121"/>
  <line id="left-margin-Regular-S" style="fill:none;stroke:#00AEEF;stroke-width:0.5;opacity:1.0;" x1="1401.672" x2="1401.672" y1="600.785" y2="720.121"/>
  <line id="right-margin-Regular-S" style="fill:none;stroke:#00AEEF;stroke-width:0.5;opacity:1.0;" x1="1498.008" x2="1498.008" y1="600.785" y2="720.121"/>
  <line id="left-margin-Black-S" style="fill:none;stroke:#00AEEF;stroke-width:0.5;opacity:1.0;" x1="2884.426" x2="2884.426" y1="600.785" y2="720.121"/>
  <line id="right-margin-Black-S" style="fill:none;stroke:#00AEEF;stroke-width:0.5;opacity:1.0;" x1="2982.374" x2="2982.374" y1="600.785" y2="720.121"/>
 </g>
 <g id="Symbols">
  <g id="Black-S" transform="matrix(1 0 0 1 2884.426 696)">
   <path class="monochrome-0 multicolor-0:tintColor hierarchical-0:secondary SFSymbolsPreview8E8E8E" d="M7.414 -8.264L9.560 -13.198C10.552 -15.477 13.203 -16.521 15.482 -15.529C17.761 -14.538 18.805 -11.887 17.813 -9.608L15.666 -4.673C14.675 -2.394 12.024 -1.351 9.745 -2.342C7.466 -3.334 6.422 -5.985 7.414 -8.264ZM45.689 -32.435L51.722 -36.568C53.772 -37.972 56.573 -37.449 57.978 -35.398C59.382 -33.348 58.858 -30.547 56.808 -29.143L50.774 -25.010C48.724 -23.606 45.923 -24.129 44.519 -26.180C43.115 -28.230 43.638 -31.031 45.689 -32.435ZM60.537 -49.404L61.782 -54.643C62.356 -57.061 64.782 -58.556 67.200 -57.981C69.618 -57.407 71.112 -54.981 70.538 -52.563L69.293 -47.323C68.718 -44.905 66.292 -43.411 63.875 -43.985C61.457 -44.560 59.962 -46.986 60.537 -49.404ZM75.576 -71.882L80.410 -74.244C82.643 -75.334 85.338 -74.408 86.428 -72.175C87.519 -69.942 86.593 -67.248 84.360 -66.157L79.526 -63.795C77.293 -62.705 74.598 -63.631 73.507 -65.864C72.417 -68.097 73.343 -70.791 75.576 -71.882Z"/>
   <path class="monochrome-1 multicolor-1:tintColor hierarchical-1:primary SFSymbolsPreview212121" d="M71.994 -63.413C71.994 -61.479 70.425 -59.910 68.491 -59.910C66.556 -59.910 64.987 -61.479 64.987 -63.413C64.987 -65.348 66.556 -66.917 68.491 -66.917C70.425 -66.917 71.994 -65.348 71.994 -63.413ZM94.948 -74.626C94.948 -72.691 93.380 -71.123 91.445 -71.123C89.510 -71.123 87.942 -72.691 87.942 -74.626C87.942 -76.561 89.510 -78.129 91.445 -78.129C93.380 -78.129 94.948 -76.561 94.948 -74.626ZM66.087 -38.553C66.087 -36.619 64.519 -35.050 62.584 -35.050C60.649 -35.050 59.081 -36.619 59.081 -38.553C59.081 -40.488 60.649 -42.057 62.584 -42.057C64.519 -42.057 66.087 -40.488 66.087 -38.553ZM43.416 -23.025C43.416 -21.090 41.847 -19.522 39.913 -19.522C37.978 -19.522 36.409 -21.090 36.409 -23.025C36.409 -24.959 37.978 -26.528 39.913 -26.528C41.847 -26.528 43.416 -24.959 43.416 -23.025ZM21.212 -20.649C21.212 -18.714 19.644 -17.146 17.709 -17.146C15.774 -17.146 14.206 -18.714 14.206 -20.649C14.206 -22.584 15.774 -24.152 17.709 -24.152C19.644 -24.152 21.212 -22.584 21.212 -20.649ZM11.456 3.442C11.456 5.777 9.563 7.670 7.228 7.670C4.893 7.670 3.000 5.777 3.000 3.442C3.000 1.107 4.893 -0.786 7.228 -0.786C9.563 -0.786 11.456 1.107 11.456 3.442Z"/>
  </g>
  <g id="Regular-S" transform="matrix(1 0 0 1 1401.672 696)">
   <path class="monochrome-0 multicolor-0:tintColor hierarchical-0:secondary SFSymbolsPreview8E8E8E" d="M6.919 -4.692L11.440 -15.085C12.046 -16.478 13.666 -17.115 15.059 -16.509C16.452 -15.904 17.089 -14.283 16.484 -12.891L11.962 -2.498C11.356 -1.105 9.736 -0.467 8.343 -1.073C6.951 -1.678 6.313 -3.299 6.919 -4.692ZM43.402 -29.277L54.222 -36.688C55.475 -37.547 57.187 -37.227 58.045 -35.974C58.903 -34.721 58.583 -33.008 57.330 -32.151L46.510 -24.739C45.257 -23.881 43.546 -24.201 42.688 -25.454C41.829 -26.707 42.149 -28.419 43.402 -29.277ZM60.687 -46.102L63.273 -56.986C63.624 -58.464 65.106 -59.377 66.584 -59.026C68.062 -58.675 68.975 -57.192 68.624 -55.715L66.038 -44.830C65.687 -43.352 64.204 -42.440 62.726 -42.791C61.249 -43.142 60.336 -44.623 60.687 -46.102ZM72.855 -68.962L82.903 -73.869C84.267 -74.535 85.914 -73.970 86.581 -72.605C87.247 -71.240 86.681 -69.594 85.317 -68.928L75.269 -64.019C73.905 -63.353 72.258 -63.919 71.591 -65.284C70.925 -66.648 71.491 -68.294 72.855 -68.962Z"/>
   <path class="monochrome-1 multicolor-1:tintColor hierarchical-1:primary SFSymbolsPreview212121" d="M70.381 -63.338C70.381 -61.806 69.140 -60.566 67.609 -60.566C66.078 -60.566 64.836 -61.806 64.836 -63.338C64.836 -64.868 66.078 -66.111 67.609 -66.111C69.140 -66.111 70.381 -64.868 70.381 -63.338ZM93.336 -74.550C93.336 -73.019 92.094 -71.778 90.563 -71.778C89.032 -71.778 87.791 -73.019 87.791 -74.550C87.791 -76.082 89.032 -77.323 90.563 -77.323C92.094 -77.323 93.336 -76.082 93.336 -74.550ZM64.474 -38.477C64.474 -36.947 63.233 -35.706 61.702 -35.706C60.171 -35.706 58.929 -36.947 58.929 -38.477C58.929 -40.008 60.171 -41.251 61.702 -41.251C63.233 -41.251 64.474 -40.008 64.474 -38.477ZM41.803 -22.950C41.803 -21.419 40.562 -20.177 39.031 -20.177C37.500 -20.177 36.258 -21.419 36.258 -22.950C36.258 -24.480 37.500 -25.722 39.031 -25.722C40.562 -25.722 41.803 -24.480 41.803 -22.950ZM19.600 -20.574C19.600 -19.043 18.358 -17.802 16.827 -17.802C15.296 -17.802 14.055 -19.043 14.055 -20.574C14.055 -22.105 15.296 -23.346 16.827 -23.346C18.358 -23.346 19.600 -22.105 19.600 -20.574ZM9.692 3.517C9.692 5.365 8.194 6.864 6.346 6.864C4.498 6.864 3.000 5.365 3.000 3.517C3.000 1.669 4.498 0.172 6.346 0.172C8.194 0.172 9.692 1.669 9.692 3.517Z"/>
  </g>
  <g id="Ultralight-S" transform="matrix(1 0 0 1 512.304 696)">
   <path class="monochrome-0 multicolor-0:tintColor hierarchical-0:secondary SFSymbolsPreview8E8E8E" d="M6.452 -1.323L13.212 -16.863C13.455 -17.420 14.103 -17.675 14.660 -17.432C15.217 -17.190 15.472 -16.542 15.230 -15.985L8.469 -0.445C8.227 0.112 7.579 0.367 7.022 0.125C6.465 -0.118 6.210 -0.766 6.452 -1.323ZM41.246 -26.298L56.579 -36.801C57.080 -37.144 57.765 -37.016 58.108 -36.515C58.452 -36.014 58.324 -35.329 57.822 -34.986L42.489 -24.483C41.988 -24.140 41.304 -24.268 40.960 -24.769C40.617 -25.271 40.745 -25.955 41.246 -26.298ZM60.828 -42.988L64.678 -59.194C64.819 -59.785 65.412 -60.150 66.003 -60.010C66.594 -59.869 66.959 -59.276 66.819 -58.685L62.968 -42.479C62.828 -41.888 62.235 -41.523 61.644 -41.663C61.053 -41.803 60.687 -42.396 60.828 -42.988ZM70.290 -66.207L85.252 -73.515C85.798 -73.782 86.457 -73.556 86.723 -73.010C86.990 -72.464 86.764 -71.805 86.218 -71.539L71.256 -64.230C70.710 -63.963 70.051 -64.190 69.784 -64.735C69.518 -65.281 69.744 -65.940 70.290 -66.207Z"/>
   <path class="monochrome-1 multicolor-1:tintColor hierarchical-1:primary SFSymbolsPreview212121" d="M68.860 -63.266C68.860 -62.116 67.927 -61.183 66.777 -61.183C65.626 -61.183 64.693 -62.116 64.693 -63.266C64.693 -64.417 65.626 -65.350 66.777 -65.350C67.927 -65.350 68.860 -64.417 68.860 -63.266ZM91.815 -74.479C91.815 -73.328 90.882 -72.395 89.731 -72.395C88.581 -72.395 87.648 -73.328 87.648 -74.479C87.648 -75.629 88.581 -76.562 89.731 -76.562C90.882 -76.562 91.815 -75.629 91.815 -74.479ZM62.953 -38.406C62.953 -37.256 62.020 -36.323 60.870 -36.323C59.719 -36.323 58.787 -37.256 58.787 -38.406C58.787 -39.557 59.719 -40.490 60.870 -40.490C62.020 -40.490 62.953 -39.557 62.953 -38.406ZM40.282 -22.878C40.282 -21.727 39.349 -20.794 38.199 -20.794C37.048 -20.794 36.115 -21.727 36.115 -22.878C36.115 -24.028 37.048 -24.961 38.199 -24.961C39.349 -24.961 40.282 -24.028 40.282 -22.878ZM18.079 -20.502C18.079 -19.351 17.146 -18.419 15.995 -18.419C14.845 -18.419 13.912 -19.351 13.912 -20.502C13.912 -21.653 14.845 -22.585 15.995 -22.585C17.146 -22.585 18.079 -21.653 18.079 -20.502ZM8.029 3.589C8.029 4.978 6.903 6.104 5.514 6.104C4.126 6.104 3.000 4.978 3.000 3.589C3.000 2.201 4.126 1.075 5.514 1.075C6.903 1.075 8.029 2.201 8.029 3.589Z"/>
  </g>
 </g>
</svg>
